#  ==========================================================================
#  
#  Wavefront OBJ format exported by Red-i Productions' "Riptide Pro"
#     (a commercial plugin for Cinema 4D PC & Mac, R9.6 or later)
#  
#  Red-i Productions
#  http://skinprops.com
#  
#  ==========================================================================
mtllib frame.mtl
v -0.9875 0.9875 0.0125
v -0.9875 1.0125 0.0125
v 0.9875 0.9875 0.0125
v 0.9875 1.0125 0.0125
v 0.9875 0.9875 -0.0125
v 0.9875 1.0125 -0.0125
v -0.9875 0.9875 -0.0125
v -0.9875 1.0125 -0.0125
# 8 vertices

vt 0.00000 0.00000
vt 0.00000 1.00000
vt 1.00000 1.00000
vt 1.00000 0.00000
# 4 texture coordinates

vn 0 0 1
vn 1 0 -0
vn 0 0 -1
vn -1 0 -0
vn 0 1 -0
vn 0 -1 -0
# 6 vertex normals

f 3/4/1 4/3/1 2/2/1 1/1/1
f 5/4/2 6/3/2 4/2/2 3/1/2
f 7/4/3 8/3/3 6/2/3 5/1/3
f 1/4/4 2/3/4 8/2/4 7/1/4
f 4/4/5 6/3/5 8/2/5 2/1/5
f 5/4/6 3/3/6 1/2/6 7/1/6
# 6 facets

v -0.9875 -1.0125 0.0125
v -0.9875 -0.9875 0.0125
v 0.9875 -1.0125 0.0125
v 0.9875 -0.9875 0.0125
v 0.9875 -1.0125 -0.0125
v 0.9875 -0.9875 -0.0125
v -0.9875 -1.0125 -0.0125
v -0.9875 -0.9875 -0.0125
# 8 vertices

vt 0.00000 0.00000
vt 0.00000 1.00000
vt 1.00000 1.00000
vt 1.00000 0.00000
# 4 texture coordinates

vn 0 0 1
vn 1 0 -0
vn 0 0 -1
vn -1 0 -0
vn 0 1 -0
vn 0 -1 -0
# 6 vertex normals

f 11/8/7 12/7/7 10/6/7 9/5/7
f 13/8/8 14/7/8 12/6/8 11/5/8
f 15/8/9 16/7/9 14/6/9 13/5/9
f 9/8/10 10/7/10 16/6/10 15/5/10
f 12/8/11 14/7/11 16/6/11 10/5/11
f 13/8/12 11/7/12 9/6/12 15/5/12
# 6 facets

v 0.9875 1.0125 0.0125
v 1.0125 1.0125 0.0125
v 0.9875 -1.0125 0.0125
v 1.0125 -1.0125 0.0125
v 0.9875 -1.0125 -0.0125
v 1.0125 -1.0125 -0.0125
v 0.9875 1.0125 -0.0125
v 1.0125 1.0125 -0.0125
# 8 vertices

vt 0.00000 0.00000
vt 0.00000 1.00000
vt 1.00000 1.00000
vt 1.00000 0.00000
# 4 texture coordinates

vn 0 0 1
vn 6.12323e-17 -1 -0
vn 0 0 -1
vn -6.12323e-17 1 -0
vn 1 6.12323e-17 -0
vn -1 -6.12323e-17 -0
# 6 vertex normals

f 19/12/13 20/11/13 18/10/13 17/9/13
f 21/12/14 22/11/14 20/10/14 19/9/14
f 23/12/15 24/11/15 22/10/15 21/9/15
f 17/12/16 18/11/16 24/10/16 23/9/16
f 20/12/17 22/11/17 24/10/17 18/9/17
f 21/12/18 19/11/18 17/10/18 23/9/18
# 6 facets

v -1.0125 1.0125 0.0125
v -0.9875 1.0125 0.0125
v -1.0125 -1.0125 0.0125
v -0.9875 -1.0125 0.0125
v -1.0125 -1.0125 -0.0125
v -0.9875 -1.0125 -0.0125
v -1.0125 1.0125 -0.0125
v -0.9875 1.0125 -0.0125
# 8 vertices

vt 0.00000 0.00000
vt 0.00000 1.00000
vt 1.00000 1.00000
vt 1.00000 0.00000
# 4 texture coordinates

vn 0 0 1
vn 6.12323e-17 -1 -0
vn 0 0 -1
vn -6.12323e-17 1 -0
vn 1 6.12323e-17 -0
vn -1 -6.12323e-17 -0
# 6 vertex normals

f 27/16/19 28/15/19 26/14/19 25/13/19
f 29/16/20 30/15/20 28/14/20 27/13/20
f 31/16/21 32/15/21 30/14/21 29/13/21
f 25/16/22 26/15/22 32/14/22 31/13/22
f 28/16/23 30/15/23 32/14/23 26/13/23
f 29/16/24 27/15/24 25/14/24 31/13/24
# 6 facets

