#  ==========================================================================
#  
#  Wavefront OBJ format exported by Red-i Productions' "Riptide Pro"
#     (a commercial plugin for Cinema 4D PC & Mac, R9.6 or later)
#  
#  Red-i Productions
#  http://skinprops.com
#  
#  ==========================================================================
mtllib halfCube.mtl
v 1 -1 -1
v 1 1 -1
v 1 1 0.996288
v 1 -1 0.996288
v -0.996288 1 -1
v -0.996288 -1 -1
# 6 vertices

vt 0.00186 1.00000
vt 1.00000 1.00000
vt 1.00000 0.00000
vt 0.00186 0.00000
vt 0.99814 0.00000
vt 0.00000 0.00000
vt 0.00000 1.00000
vt 0.99814 1.00000
vt 1.00000 0.00186
vt 1.00000 0.99814
# 10 texture coordinates

vn 1 0 -0
vn 0 0 -1
vn 0 1 -0
vn 0 -1 -0
# 4 vertex normals

f 4/4/1 1/3/1 2/2/1 3/1/1
f 5/8/2 2/7/2 1/6/2 6/5/2
f 3/9/3 2/2/3 5/1/3
f 6/4/4 1/3/4 4/10/4
# 4 facets

v 1 1 0.996288
v 1 -1 0.996288
v -0.996288 1 -1
v -0.996288 -1 -1
# 4 vertices

vt 0.26474 0.91667
vt 0.26474 0.08333
vt 0.73526 0.08333
vt 0.73526 0.91667
# 4 texture coordinates

vn -0.707107 2.84217e-16 0.707107
# 1 vertex normals

f 9/14/5 10/13/5 8/12/5 7/11/5
# 1 facets

